<?xml version="1.0" encoding="UTF-8"?>
<!-- Do not edit this file with editors other than draw.io -->
<!DOCTYPE svg PUBLIC "-//W3C//DTD SVG 1.1//EN" "http://www.w3.org/Graphics/SVG/1.1/DTD/svg11.dtd">
<svg xmlns="http://www.w3.org/2000/svg" xmlns:xlink="http://www.w3.org/1999/xlink" version="1.1" width="53px" height="37px" viewBox="-0.5 -0.5 53 37" content="&lt;mxfile host=&quot;Electron&quot; modified=&quot;2024-05-26T13:37:07.220Z&quot; agent=&quot;Mozilla/5.0 (Windows NT 10.0; Win64; x64) AppleWebKit/537.36 (KHTML, like Gecko) draw.io/24.4.8 Chrome/124.0.6367.207 Electron/30.0.6 Safari/537.36&quot; version=&quot;24.4.8&quot; etag=&quot;Ztoa6sUaayUYrGFddmGS&quot; type=&quot;device&quot; scale=&quot;1&quot; border=&quot;0&quot;&gt;&#10;  &lt;diagram name=&quot;Page-1&quot; id=&quot;ae3ugW4nrT0n5Pe1386A&quot;&gt;&#10;    &lt;mxGraphModel dx=&quot;692&quot; dy=&quot;469&quot; grid=&quot;1&quot; gridSize=&quot;10&quot; guides=&quot;1&quot; tooltips=&quot;1&quot; connect=&quot;1&quot; arrows=&quot;1&quot; fold=&quot;1&quot; page=&quot;1&quot; pageScale=&quot;1&quot; pageWidth=&quot;827&quot; pageHeight=&quot;1169&quot; math=&quot;0&quot; shadow=&quot;0&quot;&gt;&#10;      &lt;root&gt;&#10;        &lt;mxCell id=&quot;0&quot; /&gt;&#10;        &lt;mxCell id=&quot;1&quot; parent=&quot;0&quot; /&gt;&#10;        &lt;mxCell id=&quot;2&quot; value=&quot;&quot; style=&quot;points=[[0.13,0.02,0],[0.5,0,0],[0.87,0.02,0],[0.885,0.4,0],[0.985,0.985,0],[0.5,1,0],[0.015,0.985,0],[0.115,0.4,0]];verticalLabelPosition=bottom;sketch=0;html=1;verticalAlign=top;aspect=fixed;align=center;pointerEvents=1;shape=mxgraph.cisco19.laptop;fillColor=#3C708A;strokeColor=none;container=0;&quot; vertex=&quot;1&quot; parent=&quot;1&quot;&gt;&#10;          &lt;mxGeometry x=&quot;210&quot; y=&quot;370&quot; width=&quot;52.86&quot; height=&quot;37&quot; as=&quot;geometry&quot; /&gt;&#10;        &lt;/mxCell&gt;&#10;      &lt;/root&gt;&#10;    &lt;/mxGraphModel&gt;&#10;  &lt;/diagram&gt;&#10;&lt;/mxfile&gt;&#10;"><defs/><g><g><rect x="0" y="0" width="52.86" height="37" fill="none" stroke="none" pointer-events="all"/><path d="M 7.91 27.2 L 8.41 27.2 L 44.47 27.2 L 45.01 27.2 C 45.22 27.2 45.78 27.5 46.21 27.84 L 52.14 33.57 L 52.14 34.93 C 52.14 35.58 51.46 36.26 50.62 36.26 L 2.29 36.26 C 1.9 36.26 1.49 36.12 1.2 35.87 C 0.91 35.62 0.72 35.28 0.72 34.81 L 0.72 33.62 L 7.03 27.58 C 7.24 27.39 7.61 27.2 7.91 27.2 Z M 8.41 0.74 L 44.47 0.74 C 45.32 0.74 45.99 1.42 45.99 2.29 L 45.99 24.9 C 45.99 25.77 45.32 26.46 44.47 26.46 L 8.41 26.46 C 7.56 26.46 6.89 25.77 6.89 24.9 L 6.89 2.29 C 6.89 1.42 7.56 0.74 8.41 0.74 Z M 8.41 0 C 7.18 0 6.17 1.03 6.17 2.29 L 6.17 24.9 C 6.17 25.62 6.5 26.27 7.02 26.7 C 6.84 26.79 6.69 26.9 6.56 27.02 L 6.55 27.03 L 0 33.3 L 0 34.81 C 0 35.5 0.3 36.06 0.74 36.44 C 1.17 36.81 1.73 37 2.29 37 L 50.62 37 C 51.83 37 52.86 36.06 52.86 34.93 L 52.86 33.25 L 46.68 27.27 L 46.66 27.26 C 46.41 27.07 46.14 26.86 45.86 26.7 C 46.38 26.28 46.71 25.63 46.71 24.9 L 46.71 2.29 C 46.71 1.03 45.71 0 44.47 0 Z M 8.9 2.83 L 43.88 2.83 L 43.88 24.39 L 8.9 24.39 Z M 17.49 33.52 L 19.33 30.31 L 33.59 30.31 L 35.44 33.52 L 30.68 33.52 L 30.68 34.08 C 30.68 34.66 30.14 35.3 29.55 35.3 L 23.22 35.3 C 22.62 35.3 22.15 34.67 22.15 34.11 L 22.15 33.52 Z" fill="#3c708a" stroke="none" pointer-events="all"/></g></g></svg>