<?xml version="1.0" encoding="UTF-8"?>
<!-- Do not edit this file with editors other than draw.io -->
<!DOCTYPE svg PUBLIC "-//W3C//DTD SVG 1.1//EN" "http://www.w3.org/Graphics/SVG/1.1/DTD/svg11.dtd">
<svg xmlns="http://www.w3.org/2000/svg" xmlns:xlink="http://www.w3.org/1999/xlink" version="1.1" width="57px" height="57px" viewBox="-0.5 -0.5 57 57" content="&lt;mxfile host=&quot;Electron&quot; modified=&quot;2024-05-27T21:58:09.117Z&quot; agent=&quot;Mozilla/5.0 (Windows NT 10.0; Win64; x64) AppleWebKit/537.36 (KHTML, like Gecko) draw.io/24.4.8 Chrome/124.0.6367.207 Electron/30.0.6 Safari/537.36&quot; version=&quot;24.4.8&quot; etag=&quot;tRBEJPEh853JW9l-vuEs&quot; type=&quot;device&quot; scale=&quot;1&quot; border=&quot;0&quot;&gt;&#10;  &lt;diagram name=&quot;Page-1&quot; id=&quot;bwy0aVONtSSPxhVxpzvR&quot;&gt;&#10;    &lt;mxGraphModel dx=&quot;1038&quot; dy=&quot;704&quot; grid=&quot;1&quot; gridSize=&quot;10&quot; guides=&quot;1&quot; tooltips=&quot;1&quot; connect=&quot;1&quot; arrows=&quot;1&quot; fold=&quot;1&quot; page=&quot;1&quot; pageScale=&quot;1&quot; pageWidth=&quot;827&quot; pageHeight=&quot;1169&quot; math=&quot;0&quot; shadow=&quot;0&quot;&gt;&#10;      &lt;root&gt;&#10;        &lt;mxCell id=&quot;0&quot; /&gt;&#10;        &lt;mxCell id=&quot;1&quot; parent=&quot;0&quot; /&gt;&#10;        &lt;mxCell id=&quot;2&quot; value=&quot;&quot; style=&quot;sketch=0;points=[[0.5,0,0],[1,0.5,0],[0.5,1,0],[0,0.5,0],[0.145,0.145,0],[0.8555,0.145,0],[0.855,0.8555,0],[0.145,0.855,0]];verticalLabelPosition=bottom;html=1;verticalAlign=top;aspect=fixed;align=center;pointerEvents=1;shape=mxgraph.cisco19.rect;prIcon=router;fillColor=#FAFAFA;strokeColor=#3C708A;gradientColor=none;&quot; vertex=&quot;1&quot; parent=&quot;1&quot;&gt;&#10;          &lt;mxGeometry x=&quot;633&quot; y=&quot;375&quot; width=&quot;56&quot; height=&quot;56&quot; as=&quot;geometry&quot; /&gt;&#10;        &lt;/mxCell&gt;&#10;      &lt;/root&gt;&#10;    &lt;/mxGraphModel&gt;&#10;  &lt;/diagram&gt;&#10;&lt;/mxfile&gt;&#10;"><defs/><g><g><ellipse cx="28" cy="28" rx="28" ry="28" fill="#fafafa" stroke="none" pointer-events="all"/><rect x="0" y="0" width="56" height="56" fill="none" stroke="none" pointer-events="all"/><path d="M 42.65 45.22 L 35.59 38.3 L 32.71 41.23 L 30.51 30.65 L 41.16 32.62 L 38.3 35.52 L 45.37 42.45 Z M 26.8 31.78 L 19.87 38.84 L 22.8 41.72 L 12.23 43.92 L 14.19 33.28 L 17.1 36.12 L 24.02 29.06 Z M 13.46 10.72 L 20.52 17.65 L 23.4 14.72 L 25.6 25.29 L 14.95 23.33 L 17.8 20.42 L 10.74 13.5 Z M 29.02 24.09 L 35.95 17.02 L 33.02 14.14 L 43.59 11.95 L 41.63 22.59 L 38.73 19.74 L 31.8 26.81 Z M 28 0 C 12.54 0 0 12.54 0 28 C 0 43.46 12.54 56 28 56 C 43.46 56 56 43.46 56 28 C 56 12.54 43.46 0 28 0 Z M 28 0.71 C 43.08 0.71 55.29 12.92 55.29 28 C 55.29 43.08 43.08 55.29 28 55.29 C 12.92 55.29 0.71 43.08 0.71 28 C 0.71 12.92 12.92 0.71 28 0.71 Z" fill="#3c708a" stroke="none" pointer-events="all"/></g></g></svg>