<?xml version="1.0" encoding="UTF-8"?>
<!-- Do not edit this file with editors other than draw.io -->
<!DOCTYPE svg PUBLIC "-//W3C//DTD SVG 1.1//EN" "http://www.w3.org/Graphics/SVG/1.1/DTD/svg11.dtd">
<svg xmlns="http://www.w3.org/2000/svg" xmlns:xlink="http://www.w3.org/1999/xlink" version="1.1" width="53px" height="53px" viewBox="-0.5 -0.5 53 53" content="&lt;mxfile host=&quot;Electron&quot; modified=&quot;2024-05-27T22:22:27.319Z&quot; agent=&quot;Mozilla/5.0 (Windows NT 10.0; Win64; x64) AppleWebKit/537.36 (KHTML, like Gecko) draw.io/24.4.8 Chrome/124.0.6367.207 Electron/30.0.6 Safari/537.36&quot; version=&quot;24.4.8&quot; etag=&quot;Cw2s4G_VY7-KO7lu9AMT&quot; type=&quot;device&quot; scale=&quot;1&quot; border=&quot;0&quot;&gt;&#10;  &lt;diagram name=&quot;Page-1&quot; id=&quot;zHfPYjB46p5c7n1ukxRB&quot;&gt;&#10;    &lt;mxGraphModel dx=&quot;519&quot; dy=&quot;352&quot; grid=&quot;1&quot; gridSize=&quot;10&quot; guides=&quot;1&quot; tooltips=&quot;1&quot; connect=&quot;1&quot; arrows=&quot;1&quot; fold=&quot;1&quot; page=&quot;1&quot; pageScale=&quot;1&quot; pageWidth=&quot;827&quot; pageHeight=&quot;1169&quot; math=&quot;0&quot; shadow=&quot;0&quot;&gt;&#10;      &lt;root&gt;&#10;        &lt;mxCell id=&quot;0&quot; /&gt;&#10;        &lt;mxCell id=&quot;1&quot; parent=&quot;0&quot; /&gt;&#10;        &lt;mxCell id=&quot;2&quot; value=&quot;&quot; style=&quot;sketch=0;points=[[0.015,0.015,0],[0.985,0.015,0],[0.985,0.985,0],[0.015,0.985,0],[0.25,0,0],[0.5,0,0],[0.75,0,0],[1,0.25,0],[1,0.5,0],[1,0.75,0],[0.75,1,0],[0.5,1,0],[0.25,1,0],[0,0.75,0],[0,0.5,0],[0,0.25,0]];verticalLabelPosition=bottom;html=1;verticalAlign=top;align=center;pointerEvents=1;shape=mxgraph.cisco19.rect;prIcon=l2_switch;fillColor=#FAFAFA;strokeColor=#3c708a;gradientColor=none;aspect=fixed;&quot; vertex=&quot;1&quot; parent=&quot;1&quot;&gt;&#10;          &lt;mxGeometry x=&quot;439.5&quot; y=&quot;21.72&quot; width=&quot;52&quot; height=&quot;52&quot; as=&quot;geometry&quot; /&gt;&#10;        &lt;/mxCell&gt;&#10;      &lt;/root&gt;&#10;    &lt;/mxGraphModel&gt;&#10;  &lt;/diagram&gt;&#10;&lt;/mxfile&gt;&#10;"><defs/><g><g><rect x="0.5" y="-0.28" width="52" height="52" fill="none" stroke="none" pointer-events="all"/><path d="M 3.69 -0.28 C 1.93 -0.28 0.5 1.15 0.5 2.9 L 0.5 48.54 C 0.5 50.29 1.93 51.72 3.69 51.72 L 49.31 51.72 C 51.07 51.72 52.5 50.29 52.5 48.54 L 52.5 2.9 C 52.5 1.15 51.07 -0.28 49.31 -0.28 Z" fill="#fafafa" stroke="none" pointer-events="all"/><rect x="0.5" y="-0.28" width="52" height="52" fill="none" stroke="none" pointer-events="all"/><path d="M 24.81 41.86 L 24.81 37.72 L 13.79 37.72 L 13.79 34.44 L 4.4 39.98 L 13.79 45.44 L 13.79 41.86 Z M 29.96 22.04 L 29.96 17.9 L 18.94 17.9 L 18.94 14.62 L 9.55 20.17 L 18.94 25.62 L 18.94 22.04 Z M 23.77 32.02 L 23.77 27.88 L 34.8 27.88 L 34.8 24.61 L 44.18 30.15 L 34.8 35.61 L 34.8 32.02 Z M 28.54 12.54 L 28.54 8.4 L 39.56 8.4 L 39.56 5.12 L 48.94 10.67 L 39.56 16.12 L 39.56 12.54 Z M 3.69 -0.28 C 1.93 -0.28 0.5 1.15 0.5 2.9 L 0.5 48.54 C 0.5 50.29 1.93 51.72 3.69 51.72 L 49.31 51.72 C 51.07 51.72 52.5 50.29 52.5 48.54 L 52.5 2.9 C 52.5 1.15 51.07 -0.28 49.31 -0.28 Z M 3.69 1.15 L 49.31 1.15 C 50.29 1.15 51.06 1.92 51.06 2.9 L 51.06 48.54 C 51.06 49.52 50.29 50.29 49.31 50.29 L 3.69 50.29 C 2.71 50.29 1.94 49.52 1.94 48.54 L 1.94 2.9 C 1.94 1.92 2.71 1.15 3.69 1.15 Z" fill="#3c708a" stroke="none" pointer-events="all"/></g></g></svg>